<svg xmlns="http://www.w3.org/2000/svg" width="24" height="24" viewBox="0 0 24 24"><path fill="currentColor" d="m20.65 9.375l-1.4-1.4L20 7.2L16.8 4l-.775.75L14.6 3.325l.75-.775q.575-.575 1.425-.563q.85.013 1.425.588L21.425 5.8Q22 6.375 22 7.212q0 .838-.575 1.413ZM8.65 21.4q-.575.575-1.412.575q-.838 0-1.413-.575L2.6 18.175q-.575-.575-.575-1.413q0-.837.575-1.412l.75-.75l1.425 1.425l-.775.75L7.225 20l.75-.775L9.4 20.65Zm9.925-8.4L20 11.575L12.425 4L11 5.425L18.575 13Zm-7 7L13 18.55L5.45 11L4 12.425L11.575 20Zm-.15-5.85l2.75-2.725l-1.6-1.6l-2.725 2.75ZM13 21.4q-.575.575-1.425.575q-.85 0-1.425-.575L2.6 13.85q-.575-.575-.575-1.425q0-.85.575-1.425l1.425-1.425Q4.6 9 5.438 9q.837 0 1.412.575l1.575 1.575l2.75-2.75L9.6 6.85q-.575-.575-.575-1.425q0-.85.575-1.425l1.425-1.425Q11.6 2 12.438 2q.837 0 1.412.575l7.575 7.575q.575.575.575 1.412q0 .838-.575 1.413L20 14.4q-.575.575-1.425.575q-.85 0-1.425-.575l-1.55-1.575l-2.75 2.75l1.575 1.575q.575.575.575 1.412q0 .838-.575 1.413Z"/></svg>